<?xml version="1.0" encoding="iso-8859-1"?>
<!-- Generator: Adobe Illustrator 16.0.0, SVG Export Plug-In . SVG Version: 6.00 Build 0)  -->
<!DOCTYPE svg PUBLIC "-//W3C//DTD SVG 1.1//EN" "http://www.w3.org/Graphics/SVG/1.1/DTD/svg11.dtd">
<svg version="1.1" id="Capa_1" xmlns="http://www.w3.org/2000/svg" xmlns:xlink="http://www.w3.org/1999/xlink" x="0px" y="0px"
	 width="583.168px" height="583.168px" viewBox="0 0 583.168 583.168" style="enable-background:new 0 0 583.168 583.168;"
	 xml:space="preserve">
<g>
	<path d="M519.606,377.963c-3.053-9.947-8.232-19.286-15.696-27.125c-20.161-21.055-50.858-26.573-75.431-14.572
		c-0.197,0.035-0.305-0.054-0.536,0c-27.769,12.482-71.217-13.751-93.414-20.947c-12.179-3.947-23.269-12.492-33.948-20.081
		c16.858,1.098,34.609,10.152,42.859,14.456c1.607,0.821,3,0.071,2.071-1.054c-7.571-8.848-13.821-17.081-17.571-24.849
		l21.357,19.438l2.929-3.197l-27.394-24.929c-0.5-2.161-0.68-4.277-0.607-6.384l30.876,28.108l2.911-3.197l-33.002-30.01
		c0.375-1.357,0.893-2.706,1.536-4.045l34.18,31.072l2.929-3.205l-34.822-31.644c0.821-1.143,1.696-2.232,2.714-3.366l35.001,31.832
		l2.911-3.197l-35.019-31.84c0.839-0.929,1.821-1.991,2.928-3.196l35.002,31.831l2.928-3.179l-35-31.858
		c0.82-0.911,1.768-1.938,2.696-2.973l35.001,31.849l2.91-3.197l-35-31.84c0.768-0.857,1.57-1.732,2.393-2.669l35.001,31.858
		l2.911-3.196l-35.002-31.84c0.947-1.062,1.911-2.125,2.911-3.197l35.001,31.85l2.893-3.197l-35-31.858
		c0.91-0.973,1.803-1.955,2.714-2.982l35.001,31.84l2.911-3.206l-35.019-31.796c0.945-1.062,1.893-2.125,2.893-3.205l35.001,31.84
		l2.894-3.179l-35.002-31.84c0.965-1.062,1.929-2.116,2.929-3.197l35.001,31.85l2.893-3.197l-34.982-31.858
		c0.91-0.964,1.803-1.955,2.696-2.955l35.001,31.831l2.893-3.196l-35-31.84c0.714-0.768,1.428-1.554,2.106-2.304l35.001,31.84
		l2.911-3.206l-35.001-31.831c0.982-1.081,1.946-2.143,2.91-3.206l35.002,31.84l2.928-3.197l-35-31.84
		c0.893-0.991,1.803-1.973,2.714-2.982l35.001,31.858l2.893-3.206l-35-31.831c0.964-1.062,1.928-2.125,2.91-3.206l35.002,31.858
		l2.875-3.196l-34.966-31.894c0.981-1.062,1.929-2.143,2.929-3.206l35.001,31.858l2.894-3.196l-35.002-31.858
		c0.929-0.982,1.822-1.991,2.715-2.982l35.001,31.84l2.929-3.196l-35.02-31.84c0.768-0.857,1.536-1.706,2.322-2.545l35,31.84
		l2.912-3.206l-35.002-31.831c0.893-0.974,1.786-1.974,2.679-2.964l35.001,31.84l2.911-3.206l-35.001-31.832
		c0.803-0.884,1.607-1.777,2.41-2.652l35.002,31.849l2.91-3.196l-35.001-31.858c0.964-1.062,1.946-2.134,2.911-3.179l35.001,31.832
		l2.894-3.196l-35.002-31.84c0.929-1,1.84-2.009,2.715-2.974l35.001,31.832l2.911-3.197l-35.002-31.84
		c0.982-1.098,1.947-2.134,2.911-3.196l35.001,31.858l2.893-3.206l-35-31.813c1-1.099,1.964-2.179,2.928-3.206l35.002,31.84
		l2.893-3.206l-34.965-31.832c0.928-1.027,1.82-2.009,2.695-2.982l35.002,31.831l2.91-3.179l-35-31.849
		c0.75-0.812,1.428-1.562,2.106-2.312l35.001,31.84l2.911-3.179l-35.019-31.876c1.07-1.17,2.035-2.232,2.91-3.197l35.002,31.832
		l2.91-3.196L469.23,101.07c1.5-1.661,2.356-2.598,2.356-2.598c0.125-0.125,0.232-0.232,0.357-0.375l35.002,31.849l2.893-3.196
		l-35.002-31.84c1-1.099,1.982-2.152,2.93-3.197l35.001,31.849l2.911-3.178l-35.002-31.858c1.018-1.134,1.982-2.206,2.911-3.179
		l35.001,31.84l2.929-3.206L486.516,82.15c1.054-1.151,1.929-2.125,2.696-2.982L524.213,111l2.911-3.179l-34.966-31.814
		c0.786-0.919,1.572-1.723,2.394-2.473l34.858,31.707l2.928-3.197L498.088,70.9c1.356-0.857,2.75-1.536,4.143-2.062l33.001,30.027
		l2.929-3.188l-30.895-28.108c2.107-0.268,4.215-0.286,6.412-0.018l27.393,24.93l2.912-3.206l-21.358-19.438
		c7.894,2.911,16.429,8.179,25.715,14.67c1.25,0.875,2.519-0.125,1.536-1.643c-18.84-28.983-59.002-37.751-74.646-20.572
		c-3.321,3.669-10.482,11.518-19.661,21.608c0,0-57.145,62.814-98.771,108.584c-1.732,1.884-3.446,3.786-5.107,5.616
		c-17.161,18.84-30.947,33.992-35.751,39.26L275.5,281.835c-0.232-0.054-0.473-0.188-0.714-0.241
		c-1.152-0.259-3.232-1.062-6.143-2.304L144.897,16.755l67.824,229.418c0,0,0.589,2.143,1.554,5.875
		C130.745,208.154,0,124.294,0,124.294s222.034,193.899,230.007,200.399c0.331,1.893,0.804,3.804,1.259,5.715L77.494,499.415
		l4.902,4.464l153.219-158.97c13.715,38.483,41.403,78.789,12.384,99.361c-0.071,0.125,0,0.25-0.053,0.393
		c-26.153,18.375-31.858,57.216-12.25,88.074c20.134,31.697,59.243,43.037,87.208,25.286c17.18-10.911,25.716-33.001,32.43-54.251
		c-5.732-17.072-10.464-23.216-18.215-35.43c-5.071-7.982-11.357-14.645-18.357-19.93c-15.179-14.43-59.591-122.165-55.055-132.219
		c54.145-0.804,123.326,41.305,131.201,80.467c0.071,0,0.214-0.107,0.286-0.143c1.321,15.125,7.5,29.465,18.322,40.77
		c21.786,22.768,56.02,27.625,81.324,11.553c3.32-2.106,6.445-4.553,9.285-7.285c10.322-9.857,16.34-22.857,17.947-37.037
		c5.893-2.09,14.43-4.179,22.519-2.357c29.894,7.805,37.966-16.805,38.573-24.5C583.77,370.374,540.553,391.911,519.606,377.963z
		 M228.07,298.086c-3.857-6.045-2.054-14.117,4-17.974c6.089-3.84,14.116-2.045,17.956,4.027c3.857,6.071,2.072,14.116-4,17.974
		C239.972,305.952,231.909,304.158,228.07,298.086z M281.081,455.377c1.518,0.16,3.035,0.285,4.536,0.428
		c12.894,2.054,25.751,10.305,34.18,23.537c14.054,22.143,10.5,49.645-7.894,61.323c-18.393,11.696-44.814,3.214-58.859-18.911
		c-14.045-22.126-10.509-49.662,7.884-61.342C267.018,456.52,273.982,455.073,281.081,455.377z M489.981,426.698
		c-1.894,1.785-3.93,3.428-6.107,4.821c-17.107,10.821-40.43,7.286-55.484-8.465c-8.411-8.786-13.09-20.126-13.197-31.858
		c-0.089-11.554,4.286-22.107,12.305-29.786c1.875-1.786,3.928-3.411,6.107-4.786c17.09-10.84,40.394-7.286,55.447,8.411
		c8.43,8.804,13.09,20.161,13.197,31.894C502.338,408.447,497.945,419.054,489.981,426.698z"/>
</g>
<g>
</g>
<g>
</g>
<g>
</g>
<g>
</g>
<g>
</g>
<g>
</g>
<g>
</g>
<g>
</g>
<g>
</g>
<g>
</g>
<g>
</g>
<g>
</g>
<g>
</g>
<g>
</g>
<g>
</g>
</svg>
